<svg xmlns="http://www.w3.org/2000/svg" xml:space="preserve" viewBox="0 0 832 288">
	<g id="Layer_2">
		<path d="M289.4 158.3v63.6h-22.7v-63.6h-14.1v-17.9h14.1v-22.8h22.7v22.8h14.3v17.9h-14.3zM679.1 221.9v-18.4h34.4c8.2 0 11.6-3.5 11.6-8.6 0-4.6-2.9-8.1-11.4-8.1h-10c-15.7 0-25.7-9.7-25.7-23.3 0-13.3 11.3-23.2 26-23.2h37.9v18.2h-35.2c-4.8 0-7.3 2.4-7.3 5.7 0 3.5 2.7 5.7 7.3 5.7h10.9c19.3 0 28.4 11.3 28.4 25.2 0 14.4-9.8 26.6-29.3 26.6h-37.6zM479.7 158.3v63.6H457v-63.6h-14.1v-17.9H457v-22.8h22.7v22.8H494v17.9h-14.3z" fill="#fff"/>
		<path fill="none" stroke="#ffa648" stroke-miterlimit="10" stroke-width="20.1" d="M131.8 149.4h610.1"/>
		<path fill="#f7a146" stroke="#f7a146" stroke-miterlimit="10" stroke-width="5" d="M757.5 128.1a21.4 21.4 0 0 0-21.3 21.3c0 11.7 9.6 21.3 21.3 21.3a21.3 21.3 0 0 0 0-42.6c-11.8 0 11.7 0 0 0zm0 37.6a16.3 16.3 0 1 1 0-32.6 16.3 16.3 0 0 1 0 32.6c-9 0 9 0 0 0z"/>
		<path d="M120.8 61.8S94.3 37.9 68 39" fill="none" stroke="#fff" stroke-width="20" stroke-linejoin="bevel" stroke-miterlimit="10" />
		<path fill="none" stroke="#fff" stroke-linejoin="bevel" stroke-miterlimit="10" stroke-width="7" d="M92.8 244.1s28.6-2.7 48.4-44.3"/>
		<path fill="none" stroke="#f7a146" stroke-linejoin="bevel" stroke-miterlimit="10" stroke-width="20" d="M129.4 113.4s12.8 39.3-12.4 71.9"/>
		<path d="M219.9 208.3c-6.2 10.1-16 16-27.3 16-21.1 0-37.7-18.4-37.7-43.3 0-24.4 16.6-42.8 37.7-42.8 11.3 0 21.1 5.9 27.3 15.9v-13.6h22V222h-22v-13.7zm-21.9-4.5c9.8 0 18.1-6.2 21.9-13.5V172a25.5 25.5 0 0 0-21.9-13.5c-11.6 0-20.9 9.4-20.9 22.5 0 13.5 9.4 22.8 20.9 22.8zM376.3 208.3c-6.2 10.1-16 16-27.3 16-21.1 0-37.7-18.4-37.7-43.3 0-24.4 16.6-42.8 37.7-42.8 11.3 0 21.1 5.9 27.3 15.9v-13.6h22V222h-22v-13.7zm-21.9-4.5c9.8 0 18.1-6.2 21.9-13.5V172a25.5 25.5 0 0 0-21.9-13.5c-11.6 0-20.9 9.4-20.9 22.5 0 13.5 9.3 22.8 20.9 22.8zM544.5 192.4c-24.7 0-43-18.6-43-43.6a42.2 42.2 0 0 1 42.7-42.5c27.4 0 42 22.7 42 46h-64.9c1.6 13.2 10.6 21.1 23.2 21.1 8.7 0 17.1-4.4 20.5-11.9h20.1a40.2 40.2 0 0 1-40.6 30.9zm-21.9-52.8h41.9c-2.5-9.4-9.7-15.1-20.1-15.1s-18.8 5.8-21.8 15.1zM601.3 221.9V103H624v118.9h-22.7zM641.6 221.9V103h22.7v118.9h-22.7z" fill="#fff"/>
		<path d="M64.5 12v252.3" fill="none" stroke="#fff" stroke-width="20" stroke-linejoin="bevel" stroke-miterlimit="10" />
		<path fill="none" stroke="#fff" stroke-linecap="round" stroke-miterlimit="10" stroke-width="7" d="M60.9 90.7h119.9"/>
		<circle cx="198.5" cy="90.7" r="17.4" fill="#fff"/>
	</g>
</svg>